<svg width="1140" height="1024" xmlns="http://www.w3.org/2000/svg">
 <g id="Layer_1">
  <title>Layer 1</title>
  <path id="svg_2" d="m562.11634,315.42039c-103.27846,0 -187.00002,86.18395 -187.00002,192.50001c0,106.31606 83.72156,192.50001 187.00002,192.50001c103.27846,0 187.00002,-86.18395 187.00002,-192.50001c0,-106.31606 -83.72156,-192.50001 -187.00002,-192.50001zm-99.70161,79.65426c1.5697,0.72846 3.28093,1.37746 3.60259,1.81454c0.50179,0.67549 1.15797,2.72843 0.33453,3.23173c-0.83631,0.51655 -2.14869,0.34436 -2.32882,-1.19203c-0.16726,-1.52315 -0.33453,-1.69534 -2.31595,-2.38407c-0.28306,-0.09271 -0.45032,-0.13245 -0.65619,-0.19867c0.45032,-0.42383 0.91351,-0.84767 1.36384,-1.2715zm-6.66479,6.54293c0.39886,1.1523 1.4539,1.6556 0,2.25162c-0.77198,0.31788 -1.5697,0.37085 -2.23875,0.27814c0.74625,-0.83442 1.4539,-1.72182 2.23875,-2.52976zm106.36639,259.05516c-81.84307,0 -148.40087,-68.51538 -148.40087,-152.75235c0,-1.12581 0.14153,-2.22513 0.16726,-3.36418c0.05147,-0.03973 0.10293,-0.07947 0.1544,-0.1192c1.65976,-1.35097 3.64119,-4.75489 4.29737,-5.96016c0.66905,-1.17879 2.32882,-2.0397 1.4925,-3.39067c-0.75912,-1.2715 -3.75698,-3.04631 -5.23662,-3.45689c0.12866,-1.31124 0.41172,-2.58274 0.57899,-3.89397c0.81058,1.01985 1.76269,2.25162 2.67621,2.56949c1.47963,0.5033 6.44606,0.68873 7.28237,0.68873c0.81058,0 4.29737,0.18543 4.96642,-0.84767c0.65619,-1.01985 1.15797,-1.01985 1.98142,-1.01985c0.82345,0 2.31595,3.05955 3.48679,3.40392c1.14511,0.34436 3.30666,0.17218 3.1394,2.39731c-0.1544,2.19864 0.99071,4.09265 2.14869,4.25158c1.15797,0.17218 3.80845,-2.56949 3.80845,-2.56949s0,4.26483 -0.1544,5.80123c-0.16726,1.50991 1.81416,7.1522 1.81416,7.1522s2.48321,5.25819 3.1394,6.46347c0.66905,1.19203 3.47392,4.76813 3.47392,6.30453c0,1.54964 0.33453,3.93371 1.3381,3.93371s1.99429,-2.72843 3.1394,-4.43701c1.17084,-1.69534 1.50537,-4.10589 1.99429,-5.80123c0.50179,-1.70858 0.50179,-4.76813 0.50179,-5.96016c0,-1.20528 0.97785,-2.22513 3.30666,-3.24498c2.32882,-1.01985 3.97571,-3.92046 5.95714,-5.45686c1.99429,-1.5364 1.82703,-4.09265 5.81561,-4.09265c3.96285,0 3.62832,0 4.6319,-1.03309c0.99071,-1.01985 1.98142,-1.69534 2.47035,0.17218c0.50179,1.88076 3.30666,4.59595 3.80845,5.28468c0.50179,0.68873 1.4925,2.55625 1.3381,4.60919c-0.16726,2.02646 0.1544,4.42377 0.99071,4.42377c0.82345,0 2.48321,-2.90061 2.48321,-2.90061s3.64119,-2.543 3.47392,0.18543c-0.18013,2.71519 0.32166,5.62904 0.32166,7.31113c0,1.72182 2.985,5.80123 2.985,4.79462c0,-1.04634 1.32524,-3.92046 1.32524,-5.4701c0,-1.50991 0.82345,-0.83442 2.97213,0.67549c2.14869,1.5364 3.64119,4.62244 3.64119,4.62244s2.16155,2.0397 2.48321,2.90061c0.33453,0.84767 2.65048,-0.33112 3.1394,-1.37746c0.50179,-1.00661 0.83631,-1.52315 2.14869,-1.86752c1.3381,-0.34436 2.97213,-0.34436 3.48679,-2.22513c0.50179,-1.88076 1.98142,-4.0794 0,-6.64889c-1.98142,-2.55625 -2.985,-4.25158 -4.46464,-5.45686c-1.50537,-1.19203 -2.65048,-4.26483 -2.65048,-4.26483s3.1394,-2.88737 4.13011,-3.92046c1.01644,-1.01985 2.48321,-0.33112 2.66334,0.84767c0.16726,1.20528 -1.47963,2.22513 -1.81416,4.78137c-0.33453,2.543 1.98142,3.40392 2.65048,2.543c0.65619,-0.86091 2.31595,-2.90061 2.31595,-3.40392c0,-0.51655 -1.14511,-0.34436 -1.31237,-2.21188c-0.16726,-1.88076 2.13582,-3.24498 2.95927,-2.74167c0.84918,0.51655 6.13726,-0.67549 8.62048,-2.0397s3.96285,-4.26483 5.46821,-5.45686c1.4925,-1.17879 6.62619,-5.1125 6.29166,-6.98001c-0.33453,-1.88076 0.1544,-4.42377 -1.15797,-6.82108c-1.32524,-2.38407 -2.985,-3.90722 -3.64119,-4.94031c-0.65619,-1.01985 2.81774,-1.19203 4.46464,-2.72843c1.65976,-1.5364 0,-2.90061 -0.82345,-2.72843c-0.82345,0.17218 -2.985,0.68873 -3.80845,0.51655c-0.82345,-0.17218 -1.32524,-1.01985 -2.65048,-2.05294c-1.31237,-1.01985 0.33453,-2.543 1.17084,-2.37082c0.82345,0.17218 2.95927,-1.70858 3.96285,-2.55625c0.99071,-0.84767 2.48321,-1.52315 1.98142,-0.67549c-0.48892,0.84767 -1.6469,3.92046 -0.33453,4.09265c1.3381,0.17218 4.4775,-2.55625 4.99216,-2.38407c0.48892,0.17218 1.31237,2.38407 0.82345,3.40392c-0.50179,1.01985 -0.50179,2.72843 0.16726,2.55625c0.65619,-0.17218 1.98142,-1.70858 2.31595,-1.19203c0.34739,0.51655 1.98142,1.5364 1.15797,3.40392c-0.81058,1.88076 -2.48321,2.55625 -0.50179,3.76152c1.98142,1.17879 2.65048,0.15894 4.14298,-0.68873c1.47963,-0.84767 2.48321,-4.59595 1.6469,-5.80123c-0.82345,-1.19203 -2.80487,-3.5761 -2.80487,-4.42377c0,-0.84767 3.30666,-0.84767 3.30666,-2.21188s1.15797,-2.38407 2.31595,-2.90061c1.17084,-0.51655 2.65048,-2.72843 3.1394,-2.0397c0.50179,0.68873 3.48679,1.5364 4.29737,0.51655c0.82345,-1.01985 5.14655,-4.76813 7.78416,-6.82108c2.65048,-2.0397 3.64119,-4.42377 4.3231,-6.82108c0.65619,-2.38407 1.6469,-3.92046 1.31237,-5.78798l0,0c0.99071,2.38407 1.15797,4.09265 0.99071,5.96016c-0.16726,1.88076 0,5.80123 0.33453,6.30453c0.32166,0.51655 1.65976,1.69534 2.47035,1.36422c0.82345,-0.33112 -0.32166,-3.74828 -0.32166,-4.42377c0,-0.68873 1.15797,-1.70858 1.82703,-1.88076c0.66905,-0.17218 0,-3.05955 -0.83631,-4.26483c-0.81058,-1.19203 -1.98142,-1.88076 -1.31237,-2.0397c0.65619,-0.17218 1.47963,-1.5364 0.99071,-1.88076c-0.50179,-0.33112 -0.18013,-1.5364 -1.32524,-1.19203c-0.83631,0.25165 -3.1008,-0.19867 -3.0236,1.25826c-0.47606,-1.45693 -1.4925,-2.4238 -2.77914,-2.27811c-1.4925,0.17218 -2.32882,1.01985 -3.80845,1.01985s-0.32166,-2.38407 -0.99071,-2.38407c-0.65619,0 -2.16155,2.21188 -2.97213,1.01985c-0.82345,-1.19203 2.31595,-2.72843 4.79916,-3.5761c2.47035,-0.84767 6.61332,-5.80123 8.28595,-5.97341c1.6469,-0.17218 5.78987,0.34436 9.43106,0.17218c3.64119,-0.17218 4.79916,-1.70858 5.95714,-0.84767s3.64119,1.88076 5.13369,1.70858c1.4925,-0.18543 0.82345,0 3.1394,-1.70858c2.31595,-1.70858 4.4775,-2.55625 5.63548,-3.92046c1.15797,-1.36422 4.31024,-2.38407 4.4775,-1.01985c0.18013,1.36422 -0.33453,2.72843 0.99071,2.72843s3.31953,-1.36422 4.96642,-2.0397c1.65976,-0.67549 2.97213,-1.5364 2.97213,-1.5364s-6.78058,4.76813 -8.42748,5.80123c-1.65976,1.01985 -5.63548,1.70858 -7.29524,3.74828c-1.6469,2.05294 -2.63761,2.72843 -2.47035,4.95356c0.18013,2.21188 2.97213,5.1125 1.6469,7.1522c-1.32524,2.0397 -1.81416,4.94031 -1.81416,4.94031s1.98142,-2.90061 4.79916,-4.76813s4.4775,-4.42377 5.46821,-5.45686s3.97571,-1.20528 3.97571,-2.39731s0.82345,-2.72843 1.3381,-4.09265c0.48892,-1.36422 -0.99071,-1.03309 0,-2.72843c0.97785,-1.70858 0.82345,-3.0728 5.78987,-3.0728s3.30666,0.34436 7.28237,0.17218c3.97571,-0.17218 5.45535,-2.21188 9.2638,-3.24498c3.80845,-1.01985 6.78058,-1.69534 7.95143,-1.17879c1.15797,0.5033 2.985,0.15894 1.81416,-1.03309c-1.14511,-1.19203 -3.79558,-2.90061 -2.48321,-3.24498c1.3381,-0.34436 2.66334,-0.51655 3.16513,-1.88076c0.50179,-1.36422 -1.82703,-3.74828 -0.50179,-5.1125c1.3381,-1.36422 -0.99071,-3.05955 -2.66334,-3.40392c-1.6469,-0.33112 -8.10582,0.34436 -9.40533,-0.33112c-1.3381,-0.68873 -3.48679,-1.5364 -4.14298,-1.03309c-0.66905,0.51655 -2.16155,3.24498 -2.16155,3.24498s-1.15797,0.33112 -2.16155,-1.19203c-0.97785,-1.5364 -6.43319,-1.36422 -8.09296,-1.36422s-3.48679,0.33112 -5.31382,0.51655c-1.81416,0.17218 -2.81774,0.68873 -4.14298,-0.51655c-1.31237,-1.19203 -3.12653,-1.70858 -3.80845,-2.21188c-0.65619,-0.51655 -4.29737,-0.51655 -7.11511,-0.15894c-2.80487,0.33112 -5.63548,0.33112 -5.63548,0.33112s-1.3381,-0.51655 -3.30666,-1.70858c-1.98142,-1.19203 -3.97571,-2.0397 -4.64476,-2.0397c-0.65619,0 -5.77701,0.84767 -6.93498,0c-1.17084,-0.84767 -2.32882,-1.36422 -3.15226,-1.36422s-1.47963,-1.36422 -0.48892,-1.36422s5.62261,-1.36422 5.62261,-1.36422s-1.32524,-1.88076 -2.97213,-1.88076c-1.6469,0 -4.61903,-0.84767 -5.45535,-0.84767s-0.18013,0.84767 -1.82703,0.51655c-1.67263,-0.34436 -3.31953,-1.03309 -4.31024,-0.34436c-0.97785,0.67549 -3.31953,1.69534 -0.82345,2.38407c2.48321,0.68873 4.79916,0 5.46821,1.03309c0.66905,1.01985 0,1.52315 0,2.21188s-1.32524,2.55625 -2.14869,2.90061c-0.82345,0.33112 -1.83989,-0.51655 -3.47392,0.33112c-1.65976,0.84767 -5.80274,0.17218 -6.30453,0.68873c-0.48892,0.51655 -1.47963,-1.36422 -2.31595,-1.01985c-0.82345,0.33112 -2.985,2.55625 -4.14298,2.38407c-1.14511,-0.17218 -2.65048,-1.36422 -2.65048,-2.72843s-0.48892,-3.0728 -0.99071,-3.41716c-0.48892,-0.33112 -4.14298,-0.51655 -5.46821,-0.33112c-1.32524,0.17218 -5.45535,0.5033 -6.13726,1.19203c-0.66905,0.68873 -2.48321,1.19203 -3.64119,1.19203s-2.14869,-1.19203 -4.6319,-1.5364c-2.47035,-0.34436 -7.93856,-0.51655 -8.60761,-0.34436s-2.80487,-0.33112 -1.99429,-1.01985c0.83631,-0.67549 3.30666,-2.90061 1.83989,-3.90722c-1.50537,-1.03309 -4.82489,-1.03309 -6.29166,-1.19203c-1.50537,-0.17218 -2.985,-0.51655 -5.31382,-0.17218c-2.32882,0.34436 -2.81774,1.5364 -3.80845,0.51655c-0.99071,-1.01985 2.48321,0.51655 -0.99071,-1.01985c-3.47392,-1.5364 -5.13369,-1.36422 -6.13726,-0.84767c-0.99071,0.51655 0.16726,0.33112 -2.47035,1.36422c-2.65048,1.03309 -4.14298,1.5364 -4.81203,1.70858c-0.65619,0.15894 -4.78629,-0.86091 -5.28808,-1.20528c-0.48892,-0.33112 -2.32882,0.17218 -3.97571,0.84767s-2.8692,1.69534 -4.5161,1.36422c-1.65976,-0.35761 -4.31024,-0.35761 -5.97,0.33112c-1.65976,0.67549 -2.81774,0.67549 -4.46464,1.86752c-1.67263,1.19203 -4.79916,1.88076 -4.79916,1.88076s-0.78485,-0.03973 -1.73696,-0.09271c26.06729,-23.31086 59.99595,-37.54903 97.16693,-37.54903c81.84307,0 148.40087,68.51538 148.40087,152.76559s-66.57067,152.75235 -148.40087,152.75235zm-14.30742,-100.83271c0,0 2.66334,-0.34436 2.66334,-1.54964c0,-1.17879 -2.66334,-2.71519 -3.62832,-1.35097c-1.00358,1.35097 -2.81774,2.71519 -2.66334,3.92046c0.24446,1.86752 3.62832,-1.01985 3.62832,-1.01985zm-0.16726,-38.3702c-2.32882,3.08604 -2.14869,2.41055 -3.80845,1.69534c-1.6469,-0.66224 -4.29737,1.5364 -3.80845,2.41055c0.50179,0.84767 4.14298,-0.18543 4.96642,1.35097c0.83631,1.5364 0.83631,1.70858 2.48321,1.37746c1.6469,-0.34436 3.30666,-2.71519 2.81774,-3.90722c-0.48892,-1.23177 -2.65048,-2.9271 -2.65048,-2.9271zm-0.48892,16.18515c-0.65619,0 -5.30095,0.84767 -5.80274,1.04634c-0.50179,0.17218 -3.47392,-0.33112 -3.47392,-0.33112c-1.15797,1.17879 -0.33453,2.37082 1.4925,2.19864s5.63548,-0.68873 6.45892,-0.68873c0.83631,0 1.98142,-2.22513 1.32524,-2.22513zm-7.11511,-47.37667c-2.44461,0.39734 -3.96285,5.80123 -1.99429,5.62904c1.99429,-0.15894 4.14298,-5.96016 1.99429,-5.62904zm5.78987,30.34385c-0.66905,-0.84767 -2.32882,-3.58934 -4.15584,-2.90061c-0.54039,0.22516 -1.96856,3.24498 -0.1544,3.24498c1.82703,0 4.97929,0.5033 4.31024,-0.34436zm1.4925,-2.0397c2.985,-0.17218 2.14869,-3.24498 -0.16726,-3.40392c-0.65619,-0.05298 -2.81774,3.5761 0.16726,3.40392zm35.26676,28.11872c-2.48321,-0.51655 -3.1394,-1.35097 -5.78987,-2.71519c-2.66334,-1.36422 -8.62048,-1.36422 -8.77487,-0.51655c-0.18013,0.84767 0,0 -1.99429,-0.66224c-1.96856,-0.71522 -3.48679,0 -3.97571,-1.20528c-0.48892,-1.20528 -1.6469,-1.54964 -3.1394,-0.02649c-1.24804,1.28475 -1.82703,1.37746 1.00358,1.89401c2.80487,0.51655 3.64119,0.51655 2.47035,1.86752c-1.15797,1.37746 -1.98142,3.08604 -0.99071,3.23173c0.99071,0.19867 3.97571,-0.66224 4.29737,0c0.33453,0.71522 -0.65619,0.84767 2.66334,1.3907c3.31953,0.49006 3.97571,1.69534 4.61903,2.35758c0.65619,0.68873 2.65048,2.91386 1.3381,2.91386c-1.3381,0 -2.81774,1.69534 -1.82703,1.89401c0.99071,0.17218 3.97571,-0.51655 4.13011,0c0.18013,0.49006 1.83989,3.74828 3.48679,3.58934c1.65976,-0.17218 2.65048,-3.23173 3.47392,-4.10589c0.83631,-0.84767 4.14298,-1.37746 4.49037,0.15894c0.33453,1.5364 1.3381,3.08604 3.30666,4.11913c1.98142,1.00661 4.31024,2.0397 4.4775,1.17879c0.16726,-0.84767 -0.99071,-4.09265 -2.32882,-4.5827c-1.32524,-0.54304 -3.62832,-3.4304 -3.62832,-4.60919c0,-1.20528 -1.99429,-1.54964 -2.985,-2.41055c-1.00358,-0.86091 -1.83989,-3.24498 -4.3231,-3.76152zm-122.8611,-25.23136c-1.08078,0.49006 -1.99429,6.30453 0,6.98001c1.98142,0.68873 3.1394,-2.71519 2.48321,-3.58934c-0.66905,-0.80793 -0.99071,-4.05291 -2.48321,-3.39067zm95.04398,14.48982c-1.51823,-0.66224 -4.31024,5.6158 -2.32882,6.13235c1.99429,0.52979 3.47392,-5.6158 2.32882,-6.13235zm3.31953,-58.46257c0.99071,0 2.31595,-0.67549 2.31595,-2.55625c0,-1.88076 2.31595,0 3.47392,-0.17218s1.81416,-1.36422 2.31595,-2.72843c0.06433,-0.17218 0.10293,-0.27814 0.1158,-0.35761c-0.0386,0.31788 -0.01287,1.23177 1.22231,1.54964c1.98142,0.5033 2.63761,-0.84767 2.63761,-1.36422s3.64119,-1.36422 4.3231,-1.88076c0.65619,-0.5033 3.31953,-1.36422 3.47392,-2.0397c0.16726,-0.67549 0,-4.60919 0.82345,-4.94031c0.82345,-0.34436 1.98142,-0.34436 0.66905,-2.72843c-1.3381,-2.39731 -1.3381,-4.60919 -2.985,-3.58934c-1.22231,0.75495 -0.48892,3.76152 -1.47963,5.80123s-1.82703,3.92046 -2.48321,3.92046s-4.13011,1.36422 -5.13369,2.38407c-0.97785,1.01985 -5.78987,-0.84767 -6.44606,0c-0.66905,0.84767 -1.98142,1.86752 -2.81774,2.55625c-0.83631,0.67549 -3.15226,0.17218 -2.66334,2.21188c0.46319,2.06619 1.63403,3.93371 2.63761,3.93371zm22.67057,-21.8142c2.31595,-0.17218 4.4775,-0.84767 4.4775,-0.84767s3.48679,0.17218 2.985,-1.5364c-0.51466,-1.69534 -4.14298,-1.86752 -4.82489,-1.69534c-0.65619,0.17218 -1.82703,-1.88076 -3.1394,-1.5364c-1.23517,0.30463 -1.6469,2.05294 -1.6469,2.55625c0,0.51655 -4.6319,1.52315 -3.15226,2.90061c1.4925,1.35097 2.99787,0.33112 5.30095,0.15894zm-45.53413,92.74013c1.3381,0.84767 3.80845,-2.90061 4.49037,-1.72182c0.65619,1.20528 -0.16726,1.72182 0.97785,3.25822c1.17084,1.50991 3.31953,1.35097 3.31953,1.35097s-0.16726,-4.09265 -1.99429,-5.12574c-1.82703,-1.01985 -2.985,-2.19864 -0.82345,-1.86752c2.14869,0.34436 3.30666,-0.51655 2.81774,-1.50991c-0.50179,-1.03309 -3.64119,-0.51655 -4.64476,-0.34436s-2.48321,-0.68873 -2.48321,-0.68873c-0.99071,0.31788 -0.81058,1.17879 -1.15797,2.90061c-0.33453,1.68209 -1.82703,2.87412 -0.50179,3.74828zm90.24481,33.9067c-2.97213,-0.68873 -0.99071,0.51655 0,2.0397c0.99071,1.5364 2.985,2.33109 3.31953,0.66224c0.14153,-0.83442 -0.34739,-2.01321 -3.31953,-2.70194zm12.75059,41.40326c-0.99071,0.84767 0,1.20528 -2.81774,2.91386c-2.8306,1.72182 -6.30453,3.58934 -6.96071,5.1125c-0.66905,1.5364 0.65619,2.39731 3.31953,2.543c2.65048,0.17218 1.98142,0.70197 3.80845,-1.36422s3.48679,-3.23173 5.63548,-4.94031c2.16155,-1.69534 2.16155,-4.26483 2.16155,-4.26483s-2.32882,-2.35758 -2.48321,-1.86752c-0.28306,0.82118 -1.67263,1.03309 -2.66334,1.86752zm-43.88723,-41.40326c0.18013,-1.5364 -2.81774,-1.5364 -4.29737,-2.74167c-1.4925,-1.17879 -1.6469,-4.75489 -2.48321,-6.82108c-0.82345,-2.02646 -2.47035,-3.40392 -4.14298,-5.25819c-1.6469,-1.89401 -2.47035,-6.15883 -2.95927,-5.80123c-0.50179,0.33112 -1.98142,5.28468 -0.82345,6.82108c1.15797,1.5364 -0.50179,4.60919 -1.32524,6.66214c-0.83631,2.02646 -2.8306,-0.34436 -4.49037,-1.37746c-1.65976,-1.03309 -3.96285,-1.69534 -5.12082,-2.90061c-1.15797,-1.20528 1.99429,-4.43701 1.17084,-5.64229c-0.83631,-1.19203 -5.30095,-0.17218 -5.78987,-0.17218c-0.50179,0 -1.4925,-1.69534 -2.49608,-1.69534c-0.99071,0 -0.82345,3.41716 -0.82345,3.41716s-1.00358,-1.20528 -2.48321,-2.74167c-1.50537,-1.52315 0.1544,1.01985 -1.32524,2.55625c-1.50537,1.54964 -1.01644,1.03309 -1.65976,2.72843c-0.65619,1.70858 -2.14869,1.01985 -3.64119,-0.68873c-1.4925,-1.69534 -2.30308,-0.49006 -3.31953,0c-0.99071,0.51655 -1.81416,3.4304 -2.31595,4.09265c-0.50179,0.68873 -3.97571,1.54964 -4.81203,2.41055c-0.82345,0.82118 -1.15797,3.5761 -1.15797,4.26483c0,0.66224 -3.48679,0.30463 -4.64476,1.17879c-1.15797,0.84767 -2.95927,0.33112 -4.13011,0.33112c-1.15797,0 -5.13369,3.23173 -6.45892,4.0794c-1.32524,0.87416 -1.32524,3.94695 -0.65619,4.79462c0.65619,0.83442 1.98142,2.90061 1.15797,3.23173c-0.82345,0.34436 -1.3381,2.72843 0.65619,4.75489c1.98142,2.05294 1.32524,2.56949 1.47963,3.58934c0.18013,1.01985 1.00358,1.37746 2.32882,3.0728c1.31237,1.69534 -2.32882,3.05955 -2.81774,4.10589c-0.50179,1.00661 1.17084,2.543 2.14869,3.40392c0.99071,0.83442 3.48679,0.34436 4.96642,-0.17218c1.50537,-0.51655 3.15226,-1.89401 4.13011,-2.05294c1.01644,-0.17218 5.63548,-0.34436 5.63548,-0.34436s1.65976,-2.543 2.81774,-3.92046c1.14511,-1.35097 4.78629,-0.17218 4.78629,-0.17218s1.50537,-1.00661 5.48108,-1.86752c3.97571,-0.86091 2.30308,0.84767 3.80845,1.37746c1.47963,0.49006 3.47392,0.82118 4.61903,1.69534c1.15797,0.84767 0,2.88737 -0.1544,3.74828c-0.18013,0.84767 2.81774,0.5033 2.95927,-0.34436c0.18013,-0.84767 0.99071,-1.69534 2.66334,-2.71519c1.6469,-1.03309 0.32166,1.50991 0.97785,3.05955c0.66905,1.5364 1.65976,-2.07943 1.65976,-0.34436c0,0.51655 0.50179,1.03309 0.65619,1.5364c0.18013,0.51655 2.32882,0.68873 2.32882,2.38407c0,1.72182 0,2.74167 0.50179,3.05955c0.48892,0.34436 3.1394,0 4.31024,2.05294c1.14511,2.0397 1.98142,0.17218 2.63761,-0.68873c0.66905,-0.84767 2.97213,0.34436 3.64119,1.03309c0.66905,0.66224 2.48321,-1.37746 4.97929,-2.05294c2.47035,-0.67549 2.14869,-0.51655 2.81774,-1.52315c0.65619,-1.03309 1.15797,-3.74828 2.63761,-5.80123c1.47963,-2.02646 3.48679,-5.6158 3.48679,-8.35747c0,-2.72843 -0.18013,-9.03296 -1.99429,-11.90708c-1.81416,-2.90061 -5.27522,-5.81447 -5.12082,-7.33762zm-6.11153,41.74763c-0.83631,-0.17218 -2.66334,-0.82118 -2.66334,-0.82118c-1.82703,1.86752 1.82703,1.86752 1.3381,3.74828c-0.50179,1.86752 2.48321,1.17879 3.30666,0.84767c0.81058,-0.35761 2.8306,-4.27807 2.48321,-5.28468c-0.32166,-1.04634 -3.64119,1.68209 -4.46464,1.50991zm61.42412,-7.84093c-0.66905,0 -0.99071,0.84767 -2.47035,0c-1.50537,-0.83442 -1.17084,-0.49006 -2.16155,-2.21188c-0.99071,-1.68209 -1.17084,-3.92046 -2.81774,-3.04631c-0.65619,0.33112 0,2.22513 0.65619,2.88737c0.68192,0.68873 0.99071,3.05955 0.82345,3.74828c-0.1544,0.68873 -2.97213,1.5364 -1.65976,2.38407c1.3381,0.84767 3.82132,0 3.48679,1.03309c-0.32166,1.01985 -1.65976,2.37082 -0.16726,2.71519c1.47963,0.33112 1.98142,-1.17879 2.66334,-2.35758c0.65619,-1.23177 1.14511,-2.23837 2.30308,-2.9271c1.15797,-0.68873 0,-2.22513 -0.65619,-2.22513zm0.1544,-39.70793c2.16155,0.84767 5.97,-3.05955 4.46464,-3.5761c-1.47963,-0.51655 -4.46464,3.5761 -4.46464,3.5761zm-114.40788,-16.87388c-0.37313,1.52315 2.48321,2.21188 2.65048,0.51655c0.1544,-1.70858 -2.31595,-1.88076 -2.65048,-0.51655zm4.46464,-45.50915c-0.82345,0.86091 -3.30666,2.55625 -3.64119,4.10589c-0.32166,1.52315 3.97571,-2.41055 5.13369,-3.92046c1.17084,-1.54964 3.47392,-0.68873 3.96285,-1.54964c0.51466,-0.83442 0.51466,-0.83442 0.51466,-0.83442s-1.82703,-0.33112 -3.30666,-0.83442c-1.50537,-0.51655 -3.31953,1.35097 -2.48321,-1.37746c0.82345,-2.72843 3.30666,-2.21188 2.81774,-4.26483c-0.50179,-2.0397 -2.16155,-2.55625 -2.66334,-2.55625c-1.15797,0 0.16726,1.86752 -1.4925,3.05955c-1.6469,1.19203 -3.48679,1.69534 -2.48321,3.74828c0.99071,2.0397 4.46464,3.56285 3.64119,4.42377zm-13.07225,43.45621c0.16726,-1.00661 -1.82703,-2.543 -2.65048,-2.543c-0.83631,0 -4.96642,-1.01985 -4.96642,-1.01985c-0.74625,0.30463 -1.73696,0.59602 -2.03289,1.01985c-0.09006,-0.14569 -0.28306,-0.31788 -0.63045,-0.51655c-1.82703,-0.99336 -3.97571,0 -4.64476,-1.35097c-0.64332,-1.37746 -1.63403,-1.37746 -2.30308,-0.51655c-1.20944,1.54964 0.32166,2.72843 0.81058,3.05955c0.48892,0.31788 2.32882,0.68873 3.97571,0.51655c1.02931,-0.10596 2.32882,-0.35761 2.70194,-0.78144c0.05147,0.18543 0.20586,0.35761 0.45032,0.58277c1.32524,1.21852 2.14869,1.72182 4.13011,1.5364c2.00716,-0.13245 4.99216,1.04634 5.15942,0.01324zm-4.79916,-10.05281c0.83631,0 2.48321,0 3.64119,0.34436c1.15797,0.33112 4.96642,0.66224 4.79916,-0.84767c-0.16726,-1.52315 -0.48892,-3.93371 1.14511,-5.44362c1.67263,-1.54964 3.30666,-2.38407 2.48321,-4.60919c-0.81058,-2.21188 -2.48321,-3.58934 -1.32524,-4.62244c1.15797,-1.00661 2.47035,-1.35097 2.47035,-2.19864c0,-0.86091 -2.79201,2.38407 -3.1394,-3.25822c-0.06433,-1.20528 -2.65048,0.33112 -2.81774,1.5364c-0.1544,1.20528 1.82703,2.21188 -1.32524,2.21188c-3.15226,0 -3.30666,2.56949 -3.97571,3.0728c-0.66905,0.51655 -1.32524,0.67549 -2.66334,1.00661c-1.31237,0.34436 -1.63403,1.72182 -1.96856,2.56949c-0.32166,0.83442 -2.65048,-1.5364 -3.30666,-0.84767c-0.65619,0.68873 -0.16726,3.92046 0.99071,6.63565c1.18371,2.74167 4.15584,4.45025 4.99216,4.45025zm-11.60548,-0.84767c0.83631,-1.01985 0.48892,-2.543 -0.81058,-2.38407c-1.32524,0.17218 -2.48321,-2.22513 -4.6319,-3.74828c-2.16155,-1.50991 -3.80845,-2.56949 -5.80274,-4.76813c-1.98142,-2.21188 -4.46464,-3.58934 -5.78987,-4.75489c-1.3381,-1.20528 -3.30666,-1.72182 -4.14298,-1.5364c-2.04575,0.42383 2.97213,4.09265 3.48679,4.5827c0.50179,0.54304 4.97929,4.43701 4.97929,6.33102s2.97213,6.30453 3.80845,6.98001c0.82345,0.68873 4.95356,3.23173 5.62261,4.60919c0.66905,1.36422 2.14869,1.72182 2.14869,-0.17218c-0.01287,-1.88076 0.32166,-4.10589 1.13224,-5.13898zm-12.57046,-19.25795c0.82345,3.0728 2.48321,6.14559 3.1394,7.35087c0.66905,1.17879 3.48679,2.87412 4.4775,3.72179c0.99071,0.84767 2.47035,-0.31788 1.83989,-1.35097c-0.66905,-1.03309 -1.99429,-2.543 -2.14869,-3.74828c-0.16726,-1.20528 -1.00358,-3.08604 -2.32882,-5.12574c-1.31237,-2.02646 -2.47035,-2.543 -3.30666,-3.90722c-0.82345,-1.37746 -3.80845,-3.93371 -3.80845,-3.93371c-1.31237,0.17218 -1.31237,2.71519 -0.65619,3.58934c0.63045,0.83442 1.96856,0.34436 2.79201,3.40392z" stroke="#000" fill="#fff"/>
 </g>

</svg>